<svg id="Layer_1" enable-background="new 0 0 91 91" height="512" viewBox="0 0 91 91" width="512" xmlns="http://www.w3.org/2000/svg"><g><g fill="#4e7a9e"><path d="m25.6 31.7c2.1 2.1 4.2 4.2 6.2 6.5 3 3.4 8.4-2.1 5-5-3.2-2.7-6.1-5.7-9.2-8.5-1.5-1.5-3.8-1.1-5 .6-2.5 3.8-5.4 7-8.8 10-1.7 1.4.1 4.6 2.2 3.8 3.8-1.5 7-4.3 9.6-7.4z"/><path d="m67.4 24.7c-1.5-1.5-3.8-1.1-5 .6-2.5 3.8-5.4 7-8.8 10-1.7 1.4.1 4.6 2.2 3.8 3.8-1.5 6.9-4.3 9.6-7.4 2.1 2.1 4.2 4.2 6.2 6.5 3 3.4 8.4-2.1 5-5-3.3-2.7-6.2-5.7-9.2-8.5z"/><path d="m67.5 57.2c-3.7 1.6-6.9 3.8-10.9 4.9s-8.1 1.6-12.2 1.5c-8 0-15-3.2-22.3-6-.8-.3-1.6.8-1.1 1.4 1.3 1.6 2.4 3.2 4.1 4.4 1.9 1.3 4 2.2 6.1 3.1 4.2 1.7 8.7 2.6 13.2 2.9 4.6.3 9.4-.3 13.8-1.5 4.3-1.2 9.6-2.9 12.8-6.2 2.4-2.4-.6-5.7-3.5-4.5z"/></g></g></svg>