<svg height="64" viewBox="0 0 512 512" width="64" xmlns="http://www.w3.org/2000/svg"><g id="Flat"><path d="m56 240a168 168 0 0 1 286.794-118.794l22.627-22.627a199.371 199.371 0 0 0 -141.421-58.579c-110.457 0-200 89.543-200 200s89.543 200 200 200v-32a168 168 0 0 1 -168-168z" fill="#348fd9"/><path d="m56 240a168 168 0 0 0 168 168v-168l118.794-118.794a168 168 0 0 0 -286.794 118.794z" fill="#2d7dbf"/><g fill="#62a9e6"><path d="m160 113.148h16v32h-16z" transform="matrix(.866 -.5 .5 .866 -42.066 101.302)"/><path d="m113.149 160h15.999v32h-15.999z" transform="matrix(.5 -.866 .866 .5 -91.846 192.918)"/><path d="m88 232h32v16h-32z"/><path d="m105.149 296h32v15.999h-32z" transform="matrix(.866 -.5 .5 .866 -135.775 101.31)"/><path d="m152 342.852h32v16h-32z" transform="matrix(.5 -.866 .866 .5 -219.846 320.919)"/><path d="m272 122.144h32v16h-32z" transform="matrix(.5 -.866 .866 .5 31.293 314.487)"/></g><rect fill="#ffb531" height="152" rx="16" width="32" x="208" y="106.997"/><path d="m237.532 234.353a16 16 0 0 1 -5.017 22.064l-56.515 34.583a16 16 0 0 1 -22.064-5.017 16 16 0 0 1 5.017-22.064l56.515-34.583a16 16 0 0 1 22.064 5.017z" fill="#cf3b2e"/><path d="m488 237.421a199.374 199.374 0 0 0 -58.579-141.421l-22.627 22.627a168 168 0 0 1 0 237.588l22.627 22.628a199.375 199.375 0 0 0 58.579-141.422z" fill="#ffb531"/><path d="m406.794 356.215a168 168 0 0 0 0-237.588l-118.794 118.794z" fill="#fa9f0c"/><path d="m390.851 288h15.999v32h-15.999z" fill="#ffcb73" transform="matrix(.5 -.866 .866 .5 -63.846 497.416)"/><path d="m400 232h32v16h-32z" fill="#ffcb73"/><path d="m382.851 168h32v15.999h-32z" fill="#ffcb73" transform="matrix(.866 -.5 .5 .866 -34.563 223.018)"/><path d="m264 440v32a199.374 199.374 0 0 0 141.421-58.579l-22.627-22.627a167.474 167.474 0 0 1 -118.794 49.206z" fill="#f35244"/><path d="m264 440a167.474 167.474 0 0 0 118.794-49.206l-118.794-118.794z" fill="#de4132"/><path d="m304 374.852h16v32h-16z" fill="#f35244" transform="matrix(.866 -.5 .5 .866 -153.625 208.364)"/><circle cx="224" cy="242.997" fill="#de4132" r="24"/></g></svg>